# xmcd
#
# Track frame offsets:
#	150
#	14470
#	28222
#	40510
#	50730
#	63620
#	77212
#	107090
#	118200
#	128147
#
# Disc length: 1886
#
# Revision: 2
# Processed by: cddbd v1.5.1PL0 Copyright (c) Steve Scherf et al.
# Submitted via: CDex 1.40Beta9
# Normalized: r0:TDELIM( - ),TSWAP
#
DISCID=8b075c0a
DTITLE=Blues Various - The Blues, Volume 2: Best of the Blues
DYEAR=1996
DGENRE=Blues
TTITLE0=Charles Brown - Black Night
TTITLE1=Louis Jordan - I Got the Walkin' Blues
TTITLE2=Roy Milton - Early in the Morning
TTITLE3=John Lee Hooker - I Wanna Walk
TTITLE4=Richard Berry - Have Love Will Travel
TTITLE5=Joe Liggins - The Honeydripper
TTITLE6=Pee Wee Crayton - In the Evening
TTITLE7=Elmore James - Madison Blues
TTITLE8=Roy Milton - Red Light
TTITLE9=Johnny Otis - The Signifyin' Monkey
EXTD=YEAR: 1996 ID3G: 0
EXTT0=
EXTT1=
EXTT2=
EXTT3=
EXTT4=
EXTT5=
EXTT6=
EXTT7=
EXTT8=
EXTT9=
PLAYORDER=
